# xmcd CD database file
#
# Track frame offsets:
#	150
#	15140
#	29473
#	42661
#	58507
#	73533
#	88379
#	102823
#	117887
#	130948
#	146248
#	161151
#	173855
#	188574
#	201109
#	216810
#	237233
#	259373
#	273183
#	288786
#	304327
#	318673
#	333398
#	346071
#
# Disc length: 4778 seconds
#
# Revision: 3
# Processed by: cddbd v1.5.2PL0 Copyright (c) Steve Scherf et al.
# Submitted via: CDex 1.51
#
DISCID=6812a818
DTITLE=Artie Shaw - Begin The Beguine  [CD 08-10]
DYEAR=2005
DGENRE=Jazz
TTITLE0=This Is Romance
TTITLE1=What Is There To Say ¿
TTITLE2=Pyramid
TTITLE3=You Forgot About Me
TTITLE4=Whispers In The Night
TTITLE5=Blues  (Part 1)
TTITLE6=Blues  (Part 2)
TTITLE7=Who's Excited ¿
TTITLE8=Prelude In C Major
TTITLE9=Dr. Livingstone, I Presume ¿
TTITLE10=When The Quail Come Back To San Quentin
TTITLE11=My Blue Heaven
TTITLE12=Smoke Gets In Your Eyes
TTITLE13=The Calypso
TTITLE14=Beau Night In Hotchkiss Corners
TTITLE15=Concerto For Clarinet  (Part 1)
TTITLE16=Concerto For Clarinet  (Part 2)
TTITLE17=Dancing In The Dark
TTITLE18=I Cover The Waterfront
TTITLE19=Moonglow
TTITLE20=Alone Together
TTITLE21=If I Had You
TTITLE22=Georgia On My Mind
TTITLE23=It Had To Be You
EXTD=YEAR: 2005
EXTT0=
EXTT1=
EXTT2=
EXTT3=
EXTT4=
EXTT5=
EXTT6=
EXTT7=
EXTT8=
EXTT9=
EXTT10=
EXTT11=
EXTT12=
EXTT13=
EXTT14=
EXTT15=
EXTT16=
EXTT17=
EXTT18=
EXTT19=
EXTT20=
EXTT21=
EXTT22=
EXTT23=
PLAYORDER=
